<svg width="16" height="16" viewBox="0 0 16 16" fill="none" xmlns="http://www.w3.org/2000/svg">
<path d="M3.00004 1.33301H13C13.9192 1.33301 14.6667 2.08051 14.6667 2.99967V12.9997C14.6667 13.9188 13.9192 14.6663 13 14.6663H10.5V10.083H11.75L12.5834 7.99967H10.5V6.33301C10.5 5.91019 10.8155 5.91262 11.2237 5.91578C11.2596 5.91606 11.2962 5.91634 11.3334 5.91634H12.1667V3.83301H10.5C9.11921 3.83301 8.00004 4.95217 8.00004 6.33301V7.99967H6.33337V10.083H8.00004V14.6663H3.00004C2.08087 14.6663 1.33337 13.9188 1.33337 12.9997V2.99967C1.33337 2.08051 2.08087 1.33301 3.00004 1.33301Z" fill="#FFFEFF"/>
</svg>
