<svg width="24" height="24" viewBox="0 0 24 24" fill="none" xmlns="http://www.w3.org/2000/svg">
<path d="M18.4212 4.24886L19.3594 4.5949C19.5048 4.20074 19.3883 3.75774 19.0678 3.48607L18.4212 4.24886ZM15.4304 2.5L15.7767 1.5619C15.376 1.41394 14.9255 1.53687 14.6555 1.86788L15.4304 2.5ZM18.7357 8.06812L19.6041 7.57224V7.57224L18.7357 8.06812ZM21.8513 10.2534L22.8368 10.0837C22.7648 9.66566 22.4369 9.33853 22.0187 9.26754L21.8513 10.2534ZM21.8513 13.7466L22.0187 14.7325C22.4369 14.6615 22.7648 14.3344 22.8368 13.9163L21.8513 13.7466ZM18.7358 15.9319L19.6042 16.4278V16.4278L18.7358 15.9319ZM18.4212 19.7511L19.0678 20.5139C19.3883 20.2422 19.5048 19.7992 19.3594 19.4051L18.4212 19.7511ZM15.4304 21.5L14.6555 22.1321C14.9255 22.4631 15.376 22.5861 15.7767 22.4381L15.4304 21.5ZM8.56965 21.5L8.22328 22.4381C8.62402 22.5861 9.07449 22.4631 9.34452 22.1321L8.56965 21.5ZM5.57881 19.7511L4.64058 19.4051C4.49521 19.7992 4.6117 20.2422 4.93216 20.5139L5.57881 19.7511ZM5.26423 15.9319L6.13262 15.436L6.13262 15.436L5.26423 15.9319ZM2.14866 13.7466L1.16317 13.9163C1.23517 14.3344 1.56309 14.6615 1.98131 14.7325L2.14866 13.7466ZM2.14866 10.2534L1.98132 9.26753C1.5631 9.33851 1.23517 9.66564 1.16317 10.0837L2.14866 10.2534ZM5.26427 8.06811L4.39589 7.57223L5.26427 8.06811ZM5.57884 4.24886L4.9322 3.48607C4.61174 3.75773 4.49525 4.20073 4.64062 4.5949L5.57884 4.24886ZM8.56965 2.5L9.34452 1.86788C9.07449 1.53687 8.62402 1.41394 8.22328 1.5619L8.56965 2.5ZM19.0678 3.48607C18.0998 2.66543 16.9887 2.00937 15.7767 1.5619L15.084 3.4381C16.0725 3.80306 16.9811 4.33904 17.7745 5.01165L19.0678 3.48607ZM19.6041 7.57224C19.0669 6.63144 19.0098 5.54285 19.3594 4.5949L17.4829 3.90282C16.9379 5.38051 17.0243 7.08775 17.8673 8.564L19.6041 7.57224ZM22.0187 9.26754C21.041 9.10159 20.1411 8.51257 19.6041 7.57224L17.8673 8.564C18.7111 10.0417 20.1355 10.9765 21.684 11.2393L22.0187 9.26754ZM23 12C23 11.3473 22.9442 10.7069 22.8368 10.0837L20.8659 10.4232C20.954 10.9347 21 11.4615 21 12H23ZM22.8368 13.9163C22.9442 13.2931 23 12.6527 23 12H21C21 12.5385 20.954 13.0653 20.8659 13.5768L22.8368 13.9163ZM19.6042 16.4278C20.1411 15.4875 21.041 14.8984 22.0187 14.7325L21.684 12.7607C20.1356 13.0235 18.7112 13.9584 17.8674 15.436L19.6042 16.4278ZM19.3594 19.4051C19.0098 18.4571 19.0669 17.3686 19.6042 16.4278L17.8674 15.436C17.0244 16.9122 16.938 18.6195 17.483 20.0971L19.3594 19.4051ZM15.7767 22.4381C16.9887 21.9906 18.0998 21.3345 19.0678 20.5139L17.7745 18.9883C16.9811 19.6609 16.0725 20.1969 15.084 20.5619L15.7767 22.4381ZM12 20.8638C13.0658 20.8638 14.0206 21.3538 14.6555 22.1321L16.2052 20.8679C15.2098 19.6476 13.6965 18.8638 12 18.8638V20.8638ZM9.34452 22.1321C9.97942 21.3538 10.9342 20.8638 12 20.8638V18.8638C10.3035 18.8638 8.79021 19.6476 7.79478 20.8679L9.34452 22.1321ZM4.93216 20.5139C5.90021 21.3345 7.01132 21.9906 8.22328 22.4381L8.91601 20.5619C7.92752 20.1969 7.01889 19.6609 6.22545 18.9883L4.93216 20.5139ZM4.39584 16.4278C4.93306 17.3686 4.9902 18.4571 4.64058 19.4051L6.51703 20.0971C7.06202 18.6195 6.97561 16.9122 6.13262 15.436L4.39584 16.4278ZM1.98131 14.7325C2.959 14.8984 3.85888 15.4874 4.39584 16.4278L6.13262 15.436C5.28882 13.9584 3.86445 13.0235 2.31601 12.7607L1.98131 14.7325ZM1 12C1 12.6527 1.05583 13.2931 1.16317 13.9163L3.13415 13.5768C3.04605 13.0653 3 12.5385 3 12H1ZM1.16317 10.0837C1.05584 10.7069 1 11.3473 1 12H3C3 11.4615 3.04605 10.9347 3.13415 10.4232L1.16317 10.0837ZM4.39589 7.57223C3.85892 8.51256 2.95902 9.10158 1.98132 9.26753L2.316 11.2393C3.86446 10.9765 5.28886 10.0417 6.13266 8.56399L4.39589 7.57223ZM4.64062 4.5949C4.99025 5.54284 4.93312 6.63143 4.39589 7.57223L6.13266 8.56399C6.97566 7.08774 7.06207 5.3805 6.51706 3.90282L4.64062 4.5949ZM8.22328 1.5619C7.01134 2.00937 5.90024 2.66543 4.9322 3.48607L6.22549 5.01165C7.01892 4.33904 7.92754 3.80306 8.91601 3.4381L8.22328 1.5619ZM12 3.13623C10.9342 3.13623 9.97942 2.64615 9.34452 1.86788L7.79478 3.13212C8.79021 4.35235 10.3035 5.13623 12 5.13623V3.13623ZM14.6555 1.86788C14.0206 2.64615 13.0658 3.13623 12 3.13623V5.13623C13.6965 5.13623 15.2098 4.35235 16.2052 3.13212L14.6555 1.86788ZM13.5 12C13.5 12.8284 12.8284 13.5 12 13.5V15.5C13.933 15.5 15.5 13.933 15.5 12H13.5ZM12 13.5C11.1716 13.5 10.5 12.8284 10.5 12H8.5C8.5 13.933 10.067 15.5 12 15.5V13.5ZM10.5 12C10.5 11.1716 11.1716 10.5 12 10.5V8.5C10.067 8.5 8.5 10.067 8.5 12H10.5ZM12 10.5C12.8284 10.5 13.5 11.1716 13.5 12H15.5C15.5 10.067 13.933 8.5 12 8.5V10.5Z" fill="#1B66F0"/>
</svg>
