<svg width="16" height="16" viewBox="0 0 16 16" fill="none" xmlns="http://www.w3.org/2000/svg">
<path d="M8.00237 10.2175C6.77515 10.2175 5.78181 9.22366 5.78181 7.99701C5.78181 6.77036 6.7757 5.77649 8.00237 5.77649C9.22904 5.77649 10.2229 6.77036 10.2229 7.99701C10.2235 9.22366 9.22959 10.2175 8.00237 10.2175Z" fill="#FFFEFF"/>
<path fill-rule="evenodd" clip-rule="evenodd" d="M10.7491 1.37489C9.52239 1.31767 6.48406 1.32045 5.25628 1.37489C4.17739 1.42544 3.22572 1.68599 2.4585 2.4532C1.31111 3.60058 1.32169 5.10473 1.3366 7.224C1.33835 7.47303 1.34017 7.73056 1.34017 7.997C1.34017 8.24636 1.33883 8.48736 1.33754 8.72041C1.3254 10.9109 1.31715 12.3995 2.4585 13.5408C3.608 14.6898 5.12875 14.6785 7.22413 14.6629C7.47518 14.661 7.73449 14.6591 8.00239 14.6591H8.03857C10.5796 14.6591 11.4622 14.6591 12.3663 14.3091C13.6013 13.8297 14.5335 12.7258 14.6246 10.7431C14.6824 9.51586 14.6791 6.47813 14.6246 5.25038C14.5146 2.90986 13.2585 1.49044 10.7491 1.37489ZM8.00237 4.57596C6.11181 4.57596 4.58126 6.10815 4.58126 7.99701C4.58126 9.88753 6.11348 11.4181 8.00237 11.4181C9.89293 11.4181 11.4235 9.88587 11.4235 7.99701C11.4235 6.10649 9.89126 4.57596 8.00237 4.57596ZM12.3585 4.44094C12.3585 4.88245 12.0006 5.24037 11.5591 5.24037C11.1176 5.24037 10.7596 4.88245 10.7596 4.44094C10.7596 3.99943 11.1176 3.64151 11.5591 3.64151C12.0006 3.64151 12.3585 3.99943 12.3585 4.44094Z" fill="#FFFEFF"/>
</svg>
