<svg width="24" height="24" viewBox="0 0 24 24" fill="none" xmlns="http://www.w3.org/2000/svg">
<path d="M9.74329 10.6644C9.37384 10.2539 8.74155 10.2206 8.33104 10.59C7.92053 10.9595 7.88725 11.5918 8.25671 12.0023L9.74329 10.6644ZM11.4 14L10.6567 14.669C10.8463 14.8797 11.1165 15 11.4 15C11.6835 15 11.9537 14.8797 12.1433 14.669L11.4 14ZM15.7433 10.669C16.1128 10.2585 16.0795 9.62616 15.669 9.25671C15.2585 8.88725 14.6262 8.92053 14.2567 9.33104L15.7433 10.669ZM18.364 5.63604C21.8787 9.15076 21.8787 14.8492 18.364 18.364L19.7782 19.7782C24.0739 15.4824 24.0739 8.51759 19.7782 4.22183L18.364 5.63604ZM18.364 18.364C14.8492 21.8787 9.15076 21.8787 5.63604 18.364L4.22183 19.7782C8.51759 24.0739 15.4824 24.0739 19.7782 19.7782L18.364 18.364ZM5.63604 18.364C2.12132 14.8492 2.12132 9.15076 5.63604 5.63604L4.22183 4.22182C-0.0739419 8.51759 -0.0739417 15.4824 4.22183 19.7782L5.63604 18.364ZM5.63604 5.63604C9.15076 2.12132 14.8492 2.12132 18.364 5.63604L19.7782 4.22183C15.4824 -0.073941 8.51759 -0.0739427 4.22183 4.22182L5.63604 5.63604ZM8.25671 12.0023L10.6567 14.669L12.1433 13.331L9.74329 10.6644L8.25671 12.0023ZM12.1433 14.669L15.7433 10.669L14.2567 9.33104L10.6567 13.331L12.1433 14.669Z" fill="#1B66F0"/>
</svg>
