<svg width="16" height="16" viewBox="0 0 16 16" fill="none" xmlns="http://www.w3.org/2000/svg">
<path d="M12.8373 8.58743C12.6002 8.30743 12.668 8.18286 12.8373 7.93257C12.8404 7.92971 14.7978 5.40057 14.9995 4.54286L15.0007 4.54229C15.101 4.22971 15.0007 4 14.5161 4H12.9125C12.5043 4 12.316 4.19714 12.2152 4.41771C12.2152 4.41771 11.3987 6.24514 10.2437 7.42971C9.87089 7.772 9.69855 7.88171 9.49504 7.88171C9.39482 7.88171 9.23898 7.772 9.23898 7.45943V4.54229C9.23898 4.16743 9.1247 4 8.78674 4H6.26521C6.00914 4 5.85697 4.17486 5.85697 4.33771C5.85697 4.69314 6.43449 4.77486 6.49438 5.77486V7.94457C6.49438 8.42 6.4021 8.50743 6.19737 8.50743C5.65224 8.50743 4.32914 6.67257 3.54506 4.57257C3.38678 4.16514 3.23216 4.00057 2.82087 4.00057H1.21664C0.758907 4.00057 0.666626 4.19771 0.666626 4.41829C0.666626 4.808 1.21176 6.74571 3.2016 9.30571C4.52776 11.0531 6.39538 12 8.09433 12C9.11553 12 9.2402 11.7897 9.2402 11.428C9.2402 9.75829 9.14792 9.60057 9.65944 9.60057C9.89656 9.60057 10.3048 9.71029 11.2582 10.5531C12.3478 11.5526 12.5269 12 13.1368 12H14.7404C15.1975 12 15.4291 11.7897 15.2959 11.3749C14.991 10.5023 12.9302 8.70743 12.8373 8.58743V8.58743Z" fill="#FFFEFF"/>
</svg>
