<svg xmlns="http://www.w3.org/2000/svg" xmlns:xlink="http://www.w3.org/1999/xlink">
    <symbol id="adv1" viewBox="0 0 24 24">
        <path d="M8.5 10H15.5M8.5 14H13M3 5.33333V20.8889C3 21.5025 3.50368 22 4.125 22H19.875C20.4963 22 21 21.5025 21 20.8889V5.33333C21 4.71968 20.4963 4.22222 19.875 4.22222H15.375C15.375 4.22222 14.8125 2 12 2C9.1875 2 8.625 4.22222 8.625 4.22222H4.125C3.50368 4.22222 3 4.71968 3 5.33333Z"
              stroke-width="2" stroke-linecap="round" stroke-linejoin="round"/>
    </symbol>
    <symbol id="adv2" viewBox="0 0 24 24">
        <path d="M12 3.87582C6.47715 3.87582 2 8.15691 2 13.4379C2 18.7189 6.47715 23 12 23C17.5228 23 22 18.7189 22 13.4379C22 10.7974 20.8807 8.40689 19.0711 6.67649M12 3.87582V1M12 3.87582C14.7614 3.87582 17.2614 4.94609 19.0711 6.67649M12 1H8.96429M12 1H15.0357M12 13.4379L15.5714 10.0229M21.2857 4.55882L19.0711 6.67649"
              stroke-width="2" stroke-linecap="round" stroke-linejoin="round"/>
    </symbol>
    <symbol id="adv4" viewBox="0 0 24 24">
        <path d="M9.74329 10.6644C9.37384 10.2539 8.74155 10.2206 8.33104 10.59C7.92053 10.9595 7.88725 11.5918 8.25671 12.0023L9.74329 10.6644ZM11.4 14L10.6567 14.669C10.8463 14.8797 11.1165 15 11.4 15C11.6835 15 11.9537 14.8797 12.1433 14.669L11.4 14ZM15.7433 10.669C16.1128 10.2585 16.0795 9.62616 15.669 9.25671C15.2585 8.88725 14.6262 8.92053 14.2567 9.33104L15.7433 10.669ZM18.364 5.63604C21.8787 9.15076 21.8787 14.8492 18.364 18.364L19.7782 19.7782C24.0739 15.4824 24.0739 8.51759 19.7782 4.22183L18.364 5.63604ZM18.364 18.364C14.8492 21.8787 9.15076 21.8787 5.63604 18.364L4.22183 19.7782C8.51759 24.0739 15.4824 24.0739 19.7782 19.7782L18.364 18.364ZM5.63604 18.364C2.12132 14.8492 2.12132 9.15076 5.63604 5.63604L4.22183 4.22182C-0.0739419 8.51759 -0.0739417 15.4824 4.22183 19.7782L5.63604 18.364ZM5.63604 5.63604C9.15076 2.12132 14.8492 2.12132 18.364 5.63604L19.7782 4.22183C15.4824 -0.073941 8.51759 -0.0739427 4.22183 4.22182L5.63604 5.63604ZM8.25671 12.0023L10.6567 14.669L12.1433 13.331L9.74329 10.6644L8.25671 12.0023ZM12.1433 14.669L15.7433 10.669L14.2567 9.33104L10.6567 13.331L12.1433 14.669Z"/>
    </symbol>
    <symbol id="adv5" viewBox="0 0 24 24">
        <path d="M18.4212 4.24886L19.3594 4.5949C19.5048 4.20074 19.3883 3.75774 19.0678 3.48607L18.4212 4.24886ZM15.4304 2.5L15.7767 1.5619C15.376 1.41394 14.9255 1.53687 14.6555 1.86788L15.4304 2.5ZM18.7357 8.06812L19.6041 7.57224V7.57224L18.7357 8.06812ZM21.8513 10.2534L22.8368 10.0837C22.7648 9.66566 22.4369 9.33853 22.0187 9.26754L21.8513 10.2534ZM21.8513 13.7466L22.0187 14.7325C22.4369 14.6615 22.7648 14.3344 22.8368 13.9163L21.8513 13.7466ZM18.7358 15.9319L19.6042 16.4278V16.4278L18.7358 15.9319ZM18.4212 19.7511L19.0678 20.5139C19.3883 20.2422 19.5048 19.7992 19.3594 19.4051L18.4212 19.7511ZM15.4304 21.5L14.6555 22.1321C14.9255 22.4631 15.376 22.5861 15.7767 22.4381L15.4304 21.5ZM8.56965 21.5L8.22328 22.4381C8.62402 22.5861 9.07449 22.4631 9.34452 22.1321L8.56965 21.5ZM5.57881 19.7511L4.64058 19.4051C4.49521 19.7992 4.6117 20.2422 4.93216 20.5139L5.57881 19.7511ZM5.26423 15.9319L6.13262 15.436L6.13262 15.436L5.26423 15.9319ZM2.14866 13.7466L1.16317 13.9163C1.23517 14.3344 1.56309 14.6615 1.98131 14.7325L2.14866 13.7466ZM2.14866 10.2534L1.98132 9.26753C1.5631 9.33851 1.23517 9.66564 1.16317 10.0837L2.14866 10.2534ZM5.26427 8.06811L4.39589 7.57223L5.26427 8.06811ZM5.57884 4.24886L4.9322 3.48607C4.61174 3.75773 4.49525 4.20073 4.64062 4.5949L5.57884 4.24886ZM8.56965 2.5L9.34452 1.86788C9.07449 1.53687 8.62402 1.41394 8.22328 1.5619L8.56965 2.5ZM19.0678 3.48607C18.0998 2.66543 16.9887 2.00937 15.7767 1.5619L15.084 3.4381C16.0725 3.80306 16.9811 4.33904 17.7745 5.01165L19.0678 3.48607ZM19.6041 7.57224C19.0669 6.63144 19.0098 5.54285 19.3594 4.5949L17.4829 3.90282C16.9379 5.38051 17.0243 7.08775 17.8673 8.564L19.6041 7.57224ZM22.0187 9.26754C21.041 9.10159 20.1411 8.51257 19.6041 7.57224L17.8673 8.564C18.7111 10.0417 20.1355 10.9765 21.684 11.2393L22.0187 9.26754ZM23 12C23 11.3473 22.9442 10.7069 22.8368 10.0837L20.8659 10.4232C20.954 10.9347 21 11.4615 21 12H23ZM22.8368 13.9163C22.9442 13.2931 23 12.6527 23 12H21C21 12.5385 20.954 13.0653 20.8659 13.5768L22.8368 13.9163ZM19.6042 16.4278C20.1411 15.4875 21.041 14.8984 22.0187 14.7325L21.684 12.7607C20.1356 13.0235 18.7112 13.9584 17.8674 15.436L19.6042 16.4278ZM19.3594 19.4051C19.0098 18.4571 19.0669 17.3686 19.6042 16.4278L17.8674 15.436C17.0244 16.9122 16.938 18.6195 17.483 20.0971L19.3594 19.4051ZM15.7767 22.4381C16.9887 21.9906 18.0998 21.3345 19.0678 20.5139L17.7745 18.9883C16.9811 19.6609 16.0725 20.1969 15.084 20.5619L15.7767 22.4381ZM12 20.8638C13.0658 20.8638 14.0206 21.3538 14.6555 22.1321L16.2052 20.8679C15.2098 19.6476 13.6965 18.8638 12 18.8638V20.8638ZM9.34452 22.1321C9.97942 21.3538 10.9342 20.8638 12 20.8638V18.8638C10.3035 18.8638 8.79021 19.6476 7.79478 20.8679L9.34452 22.1321ZM4.93216 20.5139C5.90021 21.3345 7.01132 21.9906 8.22328 22.4381L8.91601 20.5619C7.92752 20.1969 7.01889 19.6609 6.22545 18.9883L4.93216 20.5139ZM4.39584 16.4278C4.93306 17.3686 4.9902 18.4571 4.64058 19.4051L6.51703 20.0971C7.06202 18.6195 6.97561 16.9122 6.13262 15.436L4.39584 16.4278ZM1.98131 14.7325C2.959 14.8984 3.85888 15.4874 4.39584 16.4278L6.13262 15.436C5.28882 13.9584 3.86445 13.0235 2.31601 12.7607L1.98131 14.7325ZM1 12C1 12.6527 1.05583 13.2931 1.16317 13.9163L3.13415 13.5768C3.04605 13.0653 3 12.5385 3 12H1ZM1.16317 10.0837C1.05584 10.7069 1 11.3473 1 12H3C3 11.4615 3.04605 10.9347 3.13415 10.4232L1.16317 10.0837ZM4.39589 7.57223C3.85892 8.51256 2.95902 9.10158 1.98132 9.26753L2.316 11.2393C3.86446 10.9765 5.28886 10.0417 6.13266 8.56399L4.39589 7.57223ZM4.64062 4.5949C4.99025 5.54284 4.93312 6.63143 4.39589 7.57223L6.13266 8.56399C6.97566 7.08774 7.06207 5.3805 6.51706 3.90282L4.64062 4.5949ZM8.22328 1.5619C7.01134 2.00937 5.90024 2.66543 4.9322 3.48607L6.22549 5.01165C7.01892 4.33904 7.92754 3.80306 8.91601 3.4381L8.22328 1.5619ZM12 3.13623C10.9342 3.13623 9.97942 2.64615 9.34452 1.86788L7.79478 3.13212C8.79021 4.35235 10.3035 5.13623 12 5.13623V3.13623ZM14.6555 1.86788C14.0206 2.64615 13.0658 3.13623 12 3.13623V5.13623C13.6965 5.13623 15.2098 4.35235 16.2052 3.13212L14.6555 1.86788ZM13.5 12C13.5 12.8284 12.8284 13.5 12 13.5V15.5C13.933 15.5 15.5 13.933 15.5 12H13.5ZM12 13.5C11.1716 13.5 10.5 12.8284 10.5 12H8.5C8.5 13.933 10.067 15.5 12 15.5V13.5ZM10.5 12C10.5 11.1716 11.1716 10.5 12 10.5V8.5C10.067 8.5 8.5 10.067 8.5 12H10.5ZM12 10.5C12.8284 10.5 13.5 11.1716 13.5 12H15.5C15.5 10.067 13.933 8.5 12 8.5V10.5Z"/>
    </symbol>
    <symbol id="adv6" viewBox="0 0 24 24">
        <path d="M12 10.5L12 13.5M12 13.5L15 13.5M12 13.5L12 16.5M12 13.5L9 13.5M3 3H8.45373C8.7593 3 9.04811 3.13971 9.23778 3.3793L11.3125 6H21C21.5523 6 22 6.44772 22 7V21H3C2.44772 21 2 20.5523 2 20V4C2 3.44772 2.44772 3 3 3Z" stroke-width="2" stroke-linecap="round" stroke-linejoin="round"/>
    </symbol>
    <symbol id="adv7" viewBox="0 0 24 24">
        <path d="M15.2674 15.2674C12.6898 17.845 8.51074 17.845 5.93318 15.2674C3.35561 12.6898 3.35561 8.51075 5.93318 5.93318C8.51074 3.35561 12.6898 3.35561 15.2674 5.93318C17.8449 8.51075 17.8449 12.6898 15.2674 15.2674ZM15.2674 15.2674L20 20" stroke-width="2" stroke-linecap="round"/>
    </symbol>
    <symbol id="adv8" viewBox="0 0 24 24">
        <path d="M20 21C20 16.7395 16.4183 13.2857 12 13.2857C7.58172 13.2857 4 16.7395 4 21M16.8 7.62857C16.8 10.1849 14.651 12.2571 12 12.2571C9.34902 12.2571 7.19998 10.1849 7.19998 7.62857C7.19998 5.07228 9.34902 3 12 3C14.651 3 16.8 5.07228 16.8 7.62857Z" stroke-width="2" stroke-linecap="round"/>
    </symbol>
</svg>