<svg xmlns="http://www.w3.org/2000/svg" xmlns:xlink="http://www.w3.org/1999/xlink">
    <symbol id="arrow-right" viewBox="0 0 16 16">
        <path d="M6.5 4L9.5 8L6.5 12" stroke-width="1.6" stroke-linecap="round" stroke-linejoin="round"/>
    </symbol>
    <symbol id="fb" viewBox="0 0 16 16">
        <path d="M3.00004 1.33301H13C13.9192 1.33301 14.6667 2.08051 14.6667 2.99967V12.9997C14.6667 13.9188 13.9192 14.6663 13 14.6663H10.5V10.083H11.75L12.5834 7.99967H10.5V6.33301C10.5 5.91019 10.8155 5.91262 11.2237 5.91578C11.2596 5.91606 11.2962 5.91634 11.3334 5.91634H12.1667V3.83301H10.5C9.11921 3.83301 8.00004 4.95217 8.00004 6.33301V7.99967H6.33337V10.083H8.00004V14.6663H3.00004C2.08087 14.6663 1.33337 13.9188 1.33337 12.9997V2.99967C1.33337 2.08051 2.08087 1.33301 3.00004 1.33301Z"/>
    </symbol>
    <symbol id="inst" viewBox="0 0 16 16">
        <path d="M8.00237 10.2175C6.77515 10.2175 5.78181 9.22366 5.78181 7.99701C5.78181 6.77036 6.7757 5.77649 8.00237 5.77649C9.22904 5.77649 10.2229 6.77036 10.2229 7.99701C10.2235 9.22366 9.22959 10.2175 8.00237 10.2175Z"/>
        <path fill-rule="evenodd" clip-rule="evenodd"
              d="M10.7491 1.37489C9.52239 1.31767 6.48406 1.32045 5.25628 1.37489C4.17739 1.42544 3.22572 1.68599 2.4585 2.4532C1.31111 3.60058 1.32169 5.10473 1.3366 7.224C1.33835 7.47303 1.34017 7.73056 1.34017 7.997C1.34017 8.24636 1.33883 8.48736 1.33754 8.72041C1.3254 10.9109 1.31715 12.3995 2.4585 13.5408C3.608 14.6898 5.12875 14.6785 7.22413 14.6629C7.47518 14.661 7.73449 14.6591 8.00239 14.6591H8.03857C10.5796 14.6591 11.4622 14.6591 12.3663 14.3091C13.6013 13.8297 14.5335 12.7258 14.6246 10.7431C14.6824 9.51586 14.6791 6.47813 14.6246 5.25038C14.5146 2.90986 13.2585 1.49044 10.7491 1.37489ZM8.00237 4.57596C6.11181 4.57596 4.58126 6.10815 4.58126 7.99701C4.58126 9.88753 6.11348 11.4181 8.00237 11.4181C9.89293 11.4181 11.4235 9.88587 11.4235 7.99701C11.4235 6.10649 9.89126 4.57596 8.00237 4.57596ZM12.3585 4.44094C12.3585 4.88245 12.0006 5.24037 11.5591 5.24037C11.1176 5.24037 10.7596 4.88245 10.7596 4.44094C10.7596 3.99943 11.1176 3.64151 11.5591 3.64151C12.0006 3.64151 12.3585 3.99943 12.3585 4.44094Z"/>
    </symbol>
    <symbol id="vk" viewBox="0 0 16 16">
        <path d="M12.8373 8.58743C12.6002 8.30743 12.668 8.18286 12.8373 7.93257C12.8404 7.92971 14.7978 5.40057 14.9995 4.54286L15.0007 4.54229C15.101 4.22971 15.0007 4 14.5161 4H12.9125C12.5043 4 12.316 4.19714 12.2152 4.41771C12.2152 4.41771 11.3987 6.24514 10.2437 7.42971C9.87089 7.772 9.69855 7.88171 9.49504 7.88171C9.39482 7.88171 9.23898 7.772 9.23898 7.45943V4.54229C9.23898 4.16743 9.1247 4 8.78674 4H6.26521C6.00914 4 5.85697 4.17486 5.85697 4.33771C5.85697 4.69314 6.43449 4.77486 6.49438 5.77486V7.94457C6.49438 8.42 6.4021 8.50743 6.19737 8.50743C5.65224 8.50743 4.32914 6.67257 3.54506 4.57257C3.38678 4.16514 3.23216 4.00057 2.82087 4.00057H1.21664C0.758907 4.00057 0.666626 4.19771 0.666626 4.41829C0.666626 4.808 1.21176 6.74571 3.2016 9.30571C4.52776 11.0531 6.39538 12 8.09433 12C9.11553 12 9.2402 11.7897 9.2402 11.428C9.2402 9.75829 9.14792 9.60057 9.65944 9.60057C9.89656 9.60057 10.3048 9.71029 11.2582 10.5531C12.3478 11.5526 12.5269 12 13.1368 12H14.7404C15.1975 12 15.4291 11.7897 15.2959 11.3749C14.991 10.5023 12.9302 8.70743 12.8373 8.58743V8.58743Z"/>
    </symbol>
</svg>